<svg xmlns="http://www.w3.org/2000/svg" version="1.1" xmlns:xlink="http://www.w3.org/1999/xlink" xmlns:svgjs="http://svgjs.dev/svgjs" width="1000" height="786" viewBox="0 0 1000 786"><g transform="matrix(1,0,0,1,-0.2702575175645734,0.318218623481755)"><svg viewBox="0 0 314 247" data-background-color="#f9e17e" preserveAspectRatio="xMidYMid meet" height="786" width="1000" xmlns="http://www.w3.org/2000/svg" xmlns:xlink="http://www.w3.org/1999/xlink"><g id="tight-bounds" transform="matrix(1,0,0,1,0.08486086051527764,-0.09999999999999432)"><svg viewBox="0 0 313.83027827896944 247.2" height="247.2" width="313.83027827896944"><g><svg viewBox="0 0 395.52 311.54592391843147" height="247.2" width="313.83027827896944"><g transform="matrix(1,0,0,1,0,231.80552810185864)"><svg viewBox="0 0 395.52 79.74039581657281" height="79.74039581657281" width="395.52"><g><svg viewBox="0 0 395.52 79.74039581657281" height="79.74039581657281" width="395.52"><g><svg viewBox="0 0 395.52 79.74039581657281" height="79.74039581657281" width="395.52"><g transform="matrix(1,0,0,1,0,0)"><svg width="395.52" viewBox="-8.010000228881836 -52.04999923706055 303.45001220703125 61.18000030517578" height="79.74039581657281" data-palette-color="#454545"><path d="M47.66-46.53L47.66-46.53Q47.27-46.29 46.83-46.24 46.39-46.19 45.92-46.12 45.46-46.04 45.07-45.9 44.68-45.75 44.48-45.36L44.48-45.36Q43.99-45.85 43.41-46.19 42.82-46.53 42.24-46.92L42.24-46.92Q41.75-46.78 41.26-46.53 40.77-46.29 40.28-46.29L40.28-46.29Q39.94-46.29 39.6-46.53L39.6-46.53Q39.21-46.24 38.7-46.07 38.18-45.9 37.62-45.75 37.06-45.61 36.6-45.36 36.13-45.12 35.94-44.63L35.94-44.63Q35.84-44.87 35.47-44.78 35.11-44.68 35.06-45.02L35.06-45.02Q33.5-44.48 31.88-44.09 30.27-43.7 28.66-43.26 27.05-42.82 25.49-42.29 23.93-41.75 22.46-40.97L22.46-40.97Q22.41-40.92 22.41-40.82L22.41-40.82Q22.41-40.33 22.56-39.89 22.71-39.45 22.8-39.06L22.8-39.06Q21.92-36.08 21.63-33.01 21.34-29.93 20.85-26.95L20.85-26.95 20.85-26.76Q20.85-26.51 21.04-26.39 21.24-26.27 21.24-25.98L21.24-25.98 21.19-25.88Q20.95-25.73 20.85-25.46 20.75-25.2 20.75-24.9L20.75-24.9Q20.75-24.71 20.85-24.32L20.85-24.32Q20.02-21.53 19.75-18.65 19.48-15.77 19.09-12.89L19.09-12.89 18.65-9.67Q18.55-9.38 18.48-9.11 18.41-8.84 18.41-8.54L18.41-8.54Q18.41-6.98 18.63-5.49 18.85-4 18.75-2.44L18.75-2.44Q19.19-1.76 19.19-1.12L19.19-1.12Q19.19-0.88 19.17-0.63 19.14-0.39 19.09-0.15L19.09-0.15Q19.73 0.49 20.58 0.76 21.44 1.03 22.12 1.61L22.12 1.61 22.12 1.81Q22.12 2.29 21.97 2.76 21.83 3.22 21.73 3.71L21.73 3.71Q21.63 4.1 21.51 4.83 21.39 5.57 21.19 5.81L21.19 5.81Q20.95 6.15 20.48 6.42 20.02 6.69 19.58 6.69L19.58 6.69Q19.43 6.69 19.17 6.54 18.9 6.4 18.75 6.3L18.75 6.3Q18.51 6.3 18.12 6.54 17.72 6.79 17.33 6.79L17.33 6.79Q17.14 6.79 16.99 6.76 16.85 6.74 16.65 6.64L16.65 6.64Q16.46 6.15 16.09 5.79 15.72 5.42 15.23 5.08L15.23 5.08Q15.28 4.39 14.99 4.05 14.7 3.71 14.4 3.17L14.4 3.17Q14.31 2.49 14.23 1.61 14.16 0.73 13.48 0.34L13.48 0.34Q13.72 0 13.72-0.59L13.72-0.59Q13.72-0.83 13.65-1.12 13.57-1.42 13.33-1.56L13.33-1.56 13.33-1.66Q13.28-1.9 13.5-2.03 13.72-2.15 13.72-2.39L13.72-2.39 13.72-2.59Q13.38-4.15 13.38-5.86L13.38-5.86Q13.38-7.47 13.48-9.06 13.57-10.64 13.48-12.26L13.48-12.26Q13.77-12.5 13.94-13.04 14.11-13.57 14.21-14.21 14.31-14.84 14.33-15.45 14.36-16.06 14.4-16.46L14.4-16.46Q14.65-19.24 15.19-21.95 15.72-24.66 15.82-27.49L15.82-27.49Q16.06-27.88 16.11-28.52 16.16-29.15 16.16-29.86 16.16-30.57 16.26-31.25 16.36-31.93 16.65-32.42L16.65-32.42Q16.65-33.79 16.89-35.18 17.14-36.57 17.14-37.99L17.14-37.99Q17.14-38.67 16.99-39.4L16.99-39.4Q16.5-39.6 16.11-39.6L16.11-39.6Q15.58-39.6 15.01-39.38 14.45-39.16 14.21-38.72L14.21-38.72Q13.13-38.67 12.11-38.38 11.08-38.09 10.06-38.09L10.06-38.09 9.57-38.09Q9.38-38.09 9.13-38.13L9.13-38.13Q8.79-37.99 8.42-37.89 8.06-37.79 8.11-37.3L8.11-37.3Q6.59-37.16 5.15-36.67 3.71-36.18 2.29-35.62 0.88-35.06-0.56-34.57-2-34.08-3.52-33.94L-3.52-33.94Q-4.05-33.69-4.2-32.91L-4.2-32.91Q-5.27-33.01-6.01-33.45-6.74-33.89-7.71-34.28L-7.71-34.28Q-8.01-35.3-8.01-36.23L-8.01-36.23Q-8.01-37.45-7.52-38.57-7.03-39.7-5.96-40.23L-5.96-40.23Q-5.71-40.19-5.52-40.16-5.32-40.14-5.08-40.14L-5.08-40.14Q-4.3-40.14-3.52-40.43-2.73-40.72-1.9-40.72L-1.9-40.72Q-1.66-40.72-1.37-40.58L-1.37-40.58Q-1.03-40.77-0.51-40.89 0-41.02 0.46-41.14 0.93-41.26 1.32-41.5 1.71-41.75 1.81-42.19L1.81-42.19Q2.05-41.99 2.34-41.94 2.64-41.89 2.93-41.89L2.93-41.89Q3.56-41.89 4.25-42.14 4.93-42.38 5.32-42.92L5.32-42.92Q5.66-42.53 6.3-42.53L6.3-42.53Q6.98-42.53 7.64-42.9 8.3-43.26 8.94-43.26L8.94-43.26Q9.42-43.26 9.67-42.92L9.67-42.92Q10.21-43.36 10.94-43.6 11.67-43.85 12.43-44.04 13.18-44.24 13.84-44.48 14.5-44.73 14.89-45.17L14.89-45.17Q15.14-45.12 15.67-45.12L15.67-45.12Q16.5-45.12 17.26-45.34 18.02-45.56 18.8-45.75L18.8-45.75 19.82-45.85Q20.21-45.9 20.53-46.09 20.85-46.29 21.19-46.44 21.53-46.58 21.9-46.68 22.27-46.78 22.8-46.73L22.8-46.73Q23.97-47.36 25.29-47.71 26.61-48.05 27.98-48.32 29.35-48.58 30.66-48.95 31.98-49.32 33.15-50.05L33.15-50.05 33.3-50.05Q34.28-50.05 35.23-50.39 36.18-50.73 37.01-51.32L37.01-51.32Q37.16-51.27 37.3-51.27L37.3-51.27 37.65-51.27Q39.01-51.27 40.31-51.66 41.6-52.05 43.02-52.05L43.02-52.05Q43.85-52.05 44.34-51.83 44.82-51.61 45.21-51.29 45.61-50.98 46.04-50.68 46.48-50.39 47.17-50.24L47.17-50.24Q47.61-49.41 47.61-48.46 47.61-47.51 47.66-46.53ZM69.09-3.56L69.09-3.56Q68.94-2.88 68.48-2.47 68.02-2.05 67.38-1.81 66.75-1.56 66.09-1.49 65.43-1.42 64.89-1.42L64.89-1.42Q64.65-1.42 64.43-1.44 64.21-1.46 63.96-1.46L63.96-1.46Q63.72-1.46 63.72-1.22 63.72-0.98 63.47-0.88L63.47-0.88Q63.23-0.98 62.99-1.03 62.74-1.07 62.5-1.07L62.5-1.07Q62.16-1.07 61.84-1.03 61.52-0.98 61.23-0.98L61.23-0.98Q60.84-0.98 60.67-1.07 60.5-1.17 60.37-1.29 60.25-1.42 60.13-1.56 60.01-1.71 59.76-1.81L59.76-1.81Q59.42-1.95 59.2-1.86 58.98-1.76 58.54-2.15L58.54-2.15Q57.96-2.64 57.54-3.34 57.13-4.05 56.74-4.83 56.35-5.62 55.91-6.4 55.47-7.18 54.88-7.76L54.88-7.76 54.49-7.76Q53.61-7.76 53.27-7.03L53.27-7.03Q53.02-7.18 52.78-7.4 52.54-7.62 52.24-7.76L52.24-7.76Q51.12-7.42 49.9-7.18 48.68-6.93 47.46-6.93L47.46-6.93 46.77-6.93Q46.48-6.93 46.14-7.03L46.14-7.03Q45.65-6.84 45.26-6.57 44.87-6.3 44.38-6.3L44.38-6.3Q44.09-6.3 43.7-6.49L43.7-6.49Q43.41-6.49 43.43-6.25 43.45-6.01 43.11-6.01L43.11-6.01 42.67-6.01Q41.99-6.01 41.33-5.96 40.67-5.91 39.99-5.91L39.99-5.91Q39.06-5.91 38.08-6.15L38.08-6.15Q37.84-6.01 37.55-6.01L37.55-6.01Q37.35-5.91 37.25-5.69 37.16-5.47 37.06-5.3 36.96-5.13 36.79-5 36.62-4.88 36.33-4.93L36.33-4.93Q36.23-4.35 35.84-4 35.45-3.66 35.45-2.98L35.45-2.98Q34.91-2.69 34.57-2.25 34.23-1.81 33.88-1.32 33.54-0.83 33.18-0.39 32.81 0.05 32.27 0.29L32.27 0.29Q32.03 0.59 32.13 1.22L32.13 1.22Q31.59 1.66 30.81 2 30.03 2.34 29.34 2.34L29.34 2.34Q27.93 2.34 27.39 0.83L27.39 0.83Q27.39 0.34 27.46-0.22 27.54-0.78 27.68-1.29 27.83-1.81 28.12-2.22 28.42-2.64 28.95-2.83L28.95-2.83Q28.95-3.27 28.66-3.44 28.37-3.61 28.42-4.05L28.42-4.05Q29.73-4.69 30.71-5.71 31.69-6.74 32.49-7.89 33.3-9.03 34.13-10.21 34.96-11.38 35.98-12.3L35.98-12.3 35.98-13.33Q37.45-14.89 37.89-16.85L37.89-16.85Q38.43-16.94 38.6-17.33 38.77-17.72 38.77-18.26L38.77-18.26Q39.01-18.26 39.08-18.48 39.16-18.7 39.5-18.6L39.5-18.6Q39.94-19.78 40.48-20.75 41.01-21.73 41.55-22.73 42.09-23.73 42.5-24.8 42.92-25.88 43.11-27.2L43.11-27.2Q43.8-27.25 43.87-27.86 43.94-28.47 44.04-28.96L44.04-28.96Q44.77-29.64 45.14-30.57 45.51-31.49 45.8-32.5 46.09-33.5 46.46-34.5 46.82-35.5 47.51-36.28L47.51-36.28 47.51-36.43Q47.51-36.67 47.31-36.74 47.12-36.82 47.12-37.06L47.12-37.06Q47.17-37.11 47.17-37.16L47.17-37.16Q47.75-37.4 48.04-37.96 48.34-38.53 48.92-38.77L48.92-38.77Q49.95-37.94 50.73-37.77 51.51-37.6 52.78-37.5L52.78-37.5Q53.42-36.82 53.49-35.86 53.56-34.91 53.81-33.98L53.81-33.98Q54.2-32.42 54.66-30.93 55.12-29.44 55.37-27.88L55.37-27.88Q55.52-26.95 55.91-26.12 56.3-25.29 56.44-24.41L56.44-24.41Q56.54-23.73 56.44-22.88 56.35-22.02 56.64-21.39L56.64-21.39 56.98-20.61Q57.22-20.07 57.39-19.48 57.57-18.9 57.71-18.31L57.71-18.31Q58.1-16.85 58.42-15.16 58.74-13.48 59.42-12.11L59.42-12.11Q59.67-11.62 60.18-11.43 60.69-11.23 61.33-11.16 61.96-11.08 62.57-11.11 63.18-11.13 63.62-11.13L63.62-11.13 64.11-11.13Q64.4-11.13 64.69-11.04L64.69-11.04Q64.89-10.64 64.89-10.35L64.89-10.35Q64.89-9.77 64.5-9.42 64.11-9.08 64.11-8.64L64.11-8.64Q64.11-8.4 64.3-8.11L64.3-8.11Q64.11-8.15 63.72-8.15L63.72-8.15Q62.6-8.15 61.52-7.76L61.52-7.76Q61.91-6.93 62.57-6.37 63.23-5.81 63.96-5.32L63.96-5.32Q64.45-5.71 64.99-5.71L64.99-5.71Q65.57-5.71 66.09-5.44 66.6-5.18 67.19-5.18L67.19-5.18Q67.62-5.18 67.82-5.32L67.82-5.32Q68.21-4.88 68.45-4.42 68.7-3.96 69.09-3.56ZM53.81-11.38L53.81-11.38Q53.71-12.21 53.49-12.57 53.27-12.94 53.12-13.48L53.12-13.48Q52.93-14.16 52.85-14.94 52.78-15.72 52.63-16.46L52.63-16.46Q52.29-18.12 51.88-19.78 51.46-21.44 50.83-23L50.83-23Q51.02-23.29 51.02-23.54L51.02-23.54 51.02-23.68Q50.58-24.17 50.39-24.88 50.19-25.59 50.02-26.29 49.85-27 49.58-27.61 49.31-28.22 48.73-28.61L48.73-28.61Q48.58-28.32 48.58-27.93L48.58-27.93Q48.58-27.59 48.65-27.29 48.73-27 48.73-26.66L48.73-26.66Q48.24-26.42 48.02-25.9 47.8-25.39 47.31-25.1L47.31-25.1Q46.92-23.54 46.19-22.14 45.46-20.75 44.65-19.38 43.85-18.02 43.11-16.63 42.38-15.23 41.94-13.72L41.94-13.72Q41.31-13.28 41.09-12.6 40.87-11.91 40.87-11.23L40.87-11.23Q41.31-10.99 41.87-10.96 42.43-10.94 42.97-10.94 43.5-10.94 43.99-10.84 44.48-10.74 44.87-10.35L44.87-10.35Q45.51-10.55 46.26-10.62 47.02-10.69 47.51-11.04L47.51-11.04Q48.48-10.69 49.61-10.69L49.61-10.69Q50.19-10.69 50.75-10.79 51.32-10.89 51.85-11.04L51.85-11.04Q52.29-10.94 52.54-10.72 52.78-10.5 53.27-10.55L53.27-10.55Q53.51-10.74 53.56-10.96 53.61-11.18 53.81-11.38ZM79.24-6.69L79.24-6.69Q79-6.3 78.66-5.98 78.32-5.66 78.02-5.32L78.02-5.32Q77.68-5.18 77.27-5.18 76.85-5.18 76.48-5.2 76.12-5.22 75.8-5.2 75.48-5.18 75.29-4.98L75.29-4.98Q74.9-5.08 74.7-5.35 74.51-5.62 74.02-5.66L74.02-5.66Q73.82-5.71 73.63-5.66L73.63-5.66Q72.9-6.49 72.29-7.42 71.67-8.35 71.14-9.18L71.14-9.18Q71.09-10.99 70.84-12.84L70.84-12.84Q70.8-13.28 70.7-13.72 70.6-14.16 70.55-14.55L70.55-14.55Q70.55-15.04 70.62-15.5 70.7-15.97 70.75-16.36L70.75-16.36Q70.94-17.77 71.19-19.14 71.43-20.51 71.63-21.92L71.63-21.92Q71.82-23.19 71.82-24.58 71.82-25.98 71.38-27.2L71.38-27.2 71.33-27.44Q71.43-27.83 71.55-28.1 71.67-28.37 71.72-28.71L71.72-28.71Q71.82-29.25 71.48-29.49L71.48-29.49Q71.63-29.88 71.97-30 72.31-30.13 72.36-30.57L72.36-30.57Q72.41-30.76 72.36-30.96L72.36-30.96Q72.75-31.1 73.16-31.23 73.58-31.35 73.97-31.25L73.97-31.25Q74.6-31.15 75.09-30.83 75.58-30.52 76.02-30.13L76.02-30.13Q76.8-27.78 76.66-25.17 76.51-22.56 76.17-19.92 75.83-17.29 75.73-14.77 75.63-12.26 76.51-10.11L76.51-10.11 76.61-10.06Q76.85-10.01 77-10.23 77.14-10.45 77.39-10.4L77.39-10.4Q77.58-10.3 77.63-10.3L77.63-10.3Q77.83-9.33 78.27-8.45 78.71-7.57 79.24-6.69ZM143.84-1.81L143.84-1.81Q143.84-1.32 143.79-1.07L143.79-1.07Q143.54-0.98 143.4-0.81 143.25-0.63 142.91-0.68L142.91-0.68Q142.81 0.05 142.42 0.54 142.03 1.03 141.62 1.44 141.2 1.86 140.81 2.32 140.42 2.78 140.32 3.52L140.32 3.52Q139.59 3.91 138.88 4.57 138.17 5.22 137.64 5.47L137.64 5.47Q137.25 5.66 136.81 5.79 136.37 5.91 135.93 6.1L135.93 6.1Q134.51 6.74 133.02 7.42 131.53 8.11 129.92 8.11L129.92 8.11 129.58 8.11Q129.38 8.3 129.09 8.37 128.8 8.45 128.51 8.5 128.21 8.54 127.92 8.64 127.63 8.74 127.48 8.94L127.48 8.94Q126.94 8.74 126.31 8.74L126.31 8.74 125.97 8.74Q125.14 8.94 124.4 9.03 123.67 9.13 122.84 9.13L122.84 9.13Q121.38 9.13 119.91 8.94 118.45 8.74 116.98 8.59L116.98 8.59Q116.05 7.86 115.47 6.76 114.88 5.66 114.88 4.44L114.88 4.44Q114.88 3.52 115.27 2.71 115.66 1.9 116.3 1.27L116.3 1.27 116.45 1.27Q116.88 1.27 117.35 1.07 117.81 0.88 118.25 0.88L118.25 0.88Q118.74 0.88 119.06 1.27 119.37 1.66 119.55 2.2 119.72 2.73 119.77 3.3 119.81 3.86 119.81 4.2L119.81 4.2Q120.35 4.44 120.96 4.49 121.57 4.54 122.21 4.54L122.21 4.54Q122.84 4.54 123.62 4.47 124.4 4.39 125.21 4.22 126.02 4.05 126.77 3.81 127.53 3.56 128.07 3.17L128.07 3.17Q130.75 2.93 132.8 1.95 134.85 0.98 137.15-0.34L137.15-0.34Q137.25-0.88 137.56-1.2 137.88-1.51 137.88-2.15L137.88-2.15Q137.88-2.25 137.86-2.37 137.83-2.49 137.83-2.59L137.83-2.59Q136.86-3.81 135.81-4.74 134.76-5.66 133.1-5.96L133.1-5.96Q132.9-6.4 132.46-6.62 132.02-6.84 131.53-7.03 131.04-7.23 130.61-7.45 130.17-7.67 129.97-8.2L129.97-8.2Q128.65-8.45 127.26-8.81 125.87-9.18 124.89-10.16L124.89-10.16Q124.11-10.21 123.4-10.47 122.7-10.74 122.01-11.01 121.33-11.28 120.6-11.5 119.86-11.72 119.08-11.72L119.08-11.72Q118.89-12.06 118.54-12.26 118.2-12.45 117.79-12.6 117.37-12.74 117.01-12.92 116.64-13.09 116.45-13.43L116.45-13.43Q116.25-13.38 116.15-13.23 116.05-13.09 115.81-13.09L115.81-13.09 115.62-13.09Q115.52-13.38 115.22-13.5 114.93-13.62 114.88-14.01L114.88-14.01Q114-14.06 113.3-14.36 112.59-14.65 111.98-15.01 111.37-15.38 110.73-15.72 110.1-16.06 109.32-16.26L109.32-16.26Q108.83-16.65 108.41-17.11 108-17.58 107.36-17.58L107.36-17.58Q107.22-17.58 106.83-17.48L106.83-17.48Q106.73-18.36 106.09-18.73 105.46-19.09 104.73-19.38L104.73-19.38Q104.24-20.65 103.41-21.63 102.58-22.61 101.6-23.44L101.6-23.44Q101.7-23.73 101.7-23.88L101.7-23.88Q101.7-24.37 101.45-24.73 101.21-25.1 100.92-25.34L100.92-25.34Q100.23-27.54 100.23-29.64L100.23-29.64Q100.23-32.57 101.53-35.08 102.82-37.6 105.61-38.87L105.61-38.87Q105.65-39.26 105.87-39.55 106.09-39.84 106.14-40.23L106.14-40.23Q106.58-40.23 106.83-40.43 107.07-40.63 107.29-40.84 107.51-41.06 107.75-41.26 108-41.46 108.39-41.5L108.39-41.5Q110.24-43.12 112.34-44.12 114.44-45.12 116.64-46.19L116.64-46.19Q117.08-46.39 117.37-46.92L117.37-46.92 117.67-46.92Q118.15-46.92 118.42-47.14 118.69-47.36 119.23-47.27L119.23-47.27Q119.42-47.56 119.74-47.66 120.06-47.75 120.38-47.83 120.69-47.9 120.99-48.05 121.28-48.19 121.38-48.49L121.38-48.49 121.72-48.49Q122.55-48.49 123.33-48.75 124.11-49.02 124.89-49.37L124.89-49.37 125.23-49.37Q126.21-49.37 127.07-49.73 127.92-50.1 128.9-50.24L128.9-50.24Q129.29-50.34 129.68-50.29 130.07-50.24 130.46-50.24L130.46-50.24Q130.7-50.24 131.04-50.29 131.39-50.34 131.53-50.59L131.53-50.59 131.63-50.59Q131.92-50.59 131.97-50.39 132.02-50.2 132.27-50.2L132.27-50.2Q132.61-50.2 132.95-50.29 133.29-50.39 133.63-50.39L133.63-50.39Q135.1-50.39 136.54-50.1 137.98-49.8 139.39-49.56L139.39-49.56Q139.49-48.97 139.91-48.73 140.32-48.49 140.81-48.29L140.81-48.29 140.81-48.1Q140.81-47.71 141.01-47.46L141.01-47.46Q140.81-46.78 140.32-46.44 139.83-46.09 139.25-45.85L139.25-45.85Q139.49-45.65 139.54-45.31 139.59-44.97 139.59-44.68L139.59-44.68 139.59-44.09 139.35-44.14Q138.56-44.14 138.56-43.41L138.56-43.41Q137.93-43.8 137.17-43.9 136.42-43.99 135.68-43.99L135.68-43.99Q134.71-43.99 133.63-43.92 132.56-43.85 131.53-43.95L131.53-43.95Q131.14-43.46 130.56-43.24 129.97-43.02 129.38-43.02L129.38-43.02Q128.75-43.02 128.16-43.29 127.58-43.55 127.33-44.09L127.33-44.09Q127.09-44.19 126.89-44.19L126.89-44.19 126.45-44.19Q125.67-44.19 124.92-44.02 124.16-43.85 123.38-43.63 122.6-43.41 121.84-43.19 121.08-42.97 120.3-42.92L120.3-42.92Q120.01-42.53 119.52-42.38 119.03-42.24 118.74-41.85L118.74-41.85Q117.71-41.65 116.88-41.19 116.05-40.72 115.27-40.19L115.27-40.19 113.76-39.16Q113.03-38.67 112.1-38.33L112.1-38.33Q111.42-37.6 110.83-37.16 110.24-36.72 109.32-36.38L109.32-36.38Q108.73-36.18 108.66-35.79 108.58-35.4 108.24-35.01L108.24-35.01Q107.95-34.67 107.53-34.5 107.12-34.33 106.83-33.94L106.83-33.94Q106.58-33.59 106.46-33.13 106.34-32.67 106.19-32.23 106.04-31.79 105.85-31.37 105.65-30.96 105.26-30.66L105.26-30.66Q105.26-30.47 105.24-30.27 105.21-30.08 105.21-29.93L105.21-29.93Q105.21-29.25 105.39-28.54 105.56-27.83 105.61-27.15L105.61-27.15Q106.58-25.44 107.9-24.05 109.22-22.66 110.73-21.48 112.25-20.31 113.88-19.29 115.52-18.26 117.13-17.29L117.13-17.29Q117.71-17.33 118.2-17.16 118.69-16.99 119.23-16.94L119.23-16.94Q119.81-16.5 120.6-16.26L120.6-16.26 122.16-15.77Q122.94-15.53 123.67-15.21 124.4-14.89 124.89-14.36L124.89-14.36Q125.14-14.31 125.33-14.23 125.53-14.16 125.77-14.16L125.77-14.16Q126.06-14.16 126.11-14.36L126.11-14.36Q128.31-13.53 130.41-12.52 132.51-11.52 134.85-10.99L134.85-10.99Q135.78-10.21 136.9-9.62 138.03-9.03 139.15-8.42 140.27-7.81 141.3-7.1 142.32-6.4 143.11-5.42L143.11-5.42Q143.2-4.49 143.52-3.64 143.84-2.78 143.84-1.81ZM188.37-31.4L188.51-31.4Q188.32-30.76 187.88-30.22L187.88-30.22 187.05-29.2Q186.66-28.71 186.39-28.15 186.12-27.59 186.22-26.86L186.22-26.86Q186.12-26.86 185.97-26.88 185.83-26.9 185.73-26.9L185.73-26.9Q184.95-26.9 184.53-26.54 184.12-26.17 183.43-25.93L183.43-25.93Q183.34-26.22 183.19-26.49 183.04-26.76 182.75-26.86L182.75-26.86Q181.58-26.61 180.41-26.49 179.24-26.37 178.06-26.17L178.06-26.17Q177.53-26.07 176.99-25.9 176.45-25.73 175.87-25.59L175.87-25.59Q175.57-25.49 175.23-25.51 174.89-25.54 174.55-25.49L174.55-25.49Q173.38-25.44 172.01-25.32 170.64-25.2 169.57-24.56L169.57-24.56Q169.08-24.66 168.54-24.71 168.01-24.76 167.47-24.76L167.47-24.76Q166.3-24.76 164.9-24.54 163.51-24.32 162.44-23.68L162.44-23.68Q162.19-23.78 161.93-23.83 161.66-23.88 161.32-23.88L161.32-23.88Q161.22-23.88 161.17-23.85 161.12-23.83 161.02-23.83L161.02-23.83Q160.97-23.39 161.14-22.97 161.32-22.56 161.76-22.31L161.76-22.31Q161.56-21.78 161.56-21.14L161.56-21.14Q161.56-20.31 161.68-19.48 161.8-18.65 161.8-17.82L161.8-17.82Q161.8-16.89 161.56-16.36L161.56-16.36Q162.05-14.89 162.05-13.23L162.05-13.23Q162.05-12.65 161.97-12.08 161.9-11.52 161.9-10.89L161.9-10.89Q161.9-10.35 162.29-10.03 162.68-9.72 162.68-9.18L162.68-9.18Q162.68-8.98 162.59-8.79L162.59-8.79Q163.27-8.94 163.9-9.2 164.54-9.47 165.22-9.47L165.22-9.47Q165.61-9.47 165.98-9.33 166.34-9.18 166.64-8.94L166.64-8.94Q166.59-8.69 166.56-8.4 166.54-8.11 166.54-7.81L166.54-7.81Q166.54-7.28 166.56-6.81 166.59-6.35 166.64-5.81L166.64-5.81Q166.25-5.13 165.73-4.59 165.22-4.05 165.03-3.22L165.03-3.22Q164.29-3.22 163.73-2.91 163.17-2.59 162.68-2.22 162.19-1.86 161.71-1.54 161.22-1.22 160.63-1.22L160.63-1.22Q159.9-1.22 159.61-1.44 159.31-1.66 159.17-1.9 159.02-2.15 158.9-2.34 158.78-2.54 158.39-2.49L158.39-2.49Q158.29-3.13 158-3.69 157.7-4.25 157.38-4.79 157.07-5.32 156.75-5.88 156.43-6.45 156.29-7.03L156.29-7.03Q155.99-8.3 156.04-9.67 156.09-11.04 155.6-12.3L155.6-12.3Q155.7-12.99 155.75-13.7 155.8-14.4 155.8-15.09L155.8-15.09Q155.8-16.46 155.72-17.8 155.65-19.14 155.6-20.56L155.6-20.56Q155.26-21 155.19-21.56 155.11-22.12 155.07-22.66L155.07-22.66Q154.92-22.8 154.75-22.95 154.58-23.1 154.53-23.34L154.53-23.34Q154.14-23.44 153.94-23.44L153.94-23.44Q153.26-23.44 152.8-23.12 152.33-22.8 151.94-22.8L151.94-22.8Q151.55-22.8 151.21-22.9 150.87-23 150.52-23L150.52-23Q150.23-23 150.21-22.88 150.18-22.75 149.99-22.66L149.99-22.66Q149.84-22.56 149.3-22.46 148.77-22.36 148.11-22.29 147.45-22.22 146.84-22.17 146.23-22.12 146.03-22.12L146.03-22.12Q145.25-22.12 144.84-22.44 144.42-22.75 143.84-23.14L143.84-23.14Q143.93-23.44 143.93-23.54L143.93-23.54Q143.93-24.02 143.64-24.34 143.35-24.66 143.35-24.9L143.35-24.9Q143.35-25.44 143.76-25.73 144.18-26.03 144.23-26.66L144.23-26.66Q145.35-27.15 146.52-27.39 147.69-27.64 148.91-27.78 150.13-27.93 151.33-28.13 152.53-28.32 153.7-28.76L153.7-28.76Q154.04-28.71 154.36-28.69 154.68-28.66 155.02-28.66L155.02-28.66Q156.48-28.66 157.92-28.98 159.36-29.3 160.88-29.3L160.88-29.3Q161.27-29.3 161.66-29.25 162.05-29.2 162.44-29.1L162.44-29.1Q164.39-29.39 166.32-29.74 168.25-30.08 170.3-30.32L170.3-30.32Q171.28-30.42 172.23-30.49 173.18-30.57 174.16-30.71L174.16-30.71Q174.5-30.76 174.67-30.88 174.84-31.01 174.84-31.4L174.84-31.4Q175.28-31.2 175.82-31.2L175.82-31.2Q176.65-31.2 177.43-31.49 178.21-31.79 179.04-31.79L179.04-31.79Q179.24-31.79 179.38-31.76 179.53-31.74 179.68-31.74L179.68-31.74Q180.02-31.74 180.04-32.06 180.07-32.37 180.51-32.47L180.51-32.47Q180.85-32.57 181.48-32.62 182.12-32.67 182.82-32.74 183.53-32.81 184.14-32.93 184.75-33.06 185.05-33.3L185.05-33.3 185.39-33.84Q186.27-33.79 186.68-33.08 187.1-32.37 187.15-31.54L187.15-31.54Q187.34-31.35 187.71-31.37 188.07-31.4 188.37-31.4L188.37-31.4ZM212.58-28.27L212.58-28.27Q212.29-27.83 212.24-27.29 212.19-26.76 212.19-26.32L212.19-26.32Q212.19-25.73 212.22-25.17 212.24-24.61 212.24-24.07L212.24-24.07 212.24-23.34Q212.14-23 211.95-22.66 211.75-22.31 211.65-21.97L211.65-21.97Q210.97-20.17 210.97-18.36L210.97-18.36 210.97-18.26Q210.73-17.68 210.51-17.19 210.29-16.7 210.09-16.24 209.9-15.77 209.8-15.26 209.7-14.75 209.75-14.06L209.75-14.06Q209.07-12.35 207.94-10.96 206.82-9.57 205.75-8.11L205.75-8.11Q204.72-7.71 203.87-7.08 203.01-6.45 202.23-5.66L202.23-5.66Q200.72-5.18 199.25-4.54 197.79-3.91 196.62-2.83L196.62-2.83Q195.69-2.73 194.76-2.54 193.83-2.34 192.95-1.95L192.95-1.95 192.37-1.95Q191.93-1.95 191.73-2.15L191.73-2.15Q191.1-1.81 190.41-1.68 189.73-1.56 189.05-1.56L189.05-1.56Q188.17-1.56 187.31-1.68 186.46-1.81 185.58-1.95L185.58-1.95Q185.09-2.64 184.21-3 183.33-3.37 182.65-3.71L182.65-3.71Q181.24-5.66 180.6-7.5 179.97-9.33 179.28-11.62L179.28-11.62Q179.38-12.3 179.62-12.96 179.87-13.62 179.82-14.4L179.82-14.4Q180.7-16.94 182.14-19.02 183.58-21.09 185.43-23L185.43-23Q185.43-23.29 185.56-23.49 185.68-23.68 185.58-24.07L185.58-24.07Q185.63-24.02 185.78-24.02L185.78-24.02Q186.17-24.02 186.26-24.24 186.36-24.46 186.31-24.76L186.31-24.76Q188.07-25.88 189.51-27.34 190.95-28.81 192.81-29.79L192.81-29.79Q192.95-30.22 193.3-30.52 193.64-30.81 193.83-31.2L193.83-31.2Q195.4-31.64 196.66-32.52 197.93-33.4 199.35-34.08L199.35-34.08Q200.13-34.52 200.84-34.69 201.55-34.86 202.38-35.06L202.38-35.06Q202.67-35.16 202.91-35.21 203.16-35.25 203.45-35.25L203.45-35.25Q204.33-35.25 205.16-34.94 205.99-34.62 206.87-34.62L206.87-34.62Q207.11-34.62 207.28-34.64 207.46-34.67 207.65-34.72L207.65-34.72Q208.48-33.69 209.75-33.15L209.75-33.15Q210.04-32.42 210.46-31.88 210.87-31.35 211.31-30.83 211.75-30.32 212.12-29.71 212.49-29.1 212.58-28.27ZM207.7-25.73L207.7-25.73Q207.7-25.98 207.65-26.17L207.65-26.17Q207.16-26.32 206.72-26.56 206.28-26.81 205.75-26.81L205.75-26.81Q205.4-26.81 205.06-26.66L205.06-26.66Q205.01-27 204.79-27.15 204.57-27.29 204.31-27.42 204.04-27.54 203.77-27.61 203.5-27.69 203.31-27.88L203.31-27.88Q203.16-28.27 202.99-28.69 202.82-29.1 202.38-29.3L202.38-29.3Q201.94-28.86 201.35-28.59 200.77-28.32 200.16-28.08 199.55-27.83 198.98-27.49 198.42-27.15 198.03-26.66L198.03-26.66 197.15-26.66Q196.86-26.12 196.32-25.85 195.79-25.59 195.4-25.1L195.4-25.1Q194.61-24.71 193.95-24.15 193.3-23.58 192.66-22.97 192.03-22.36 191.42-21.73 190.81-21.09 190.12-20.56L190.12-20.56Q189.49-19.19 188.73-18.19 187.97-17.19 187.31-16.16 186.65-15.14 186.19-13.94 185.73-12.74 185.73-10.99L185.73-10.99 185.73-10.5Q185.73-10.25 185.78-10.01L185.78-10.01Q186.41-9.33 186.83-8.54 187.24-7.76 188.22-7.42L188.22-7.42Q189.19-7.03 190.29-7.08 191.39-7.13 192.42-6.84L192.42-6.84Q194.76-7.28 196.93-8.28 199.11-9.28 201.06-10.69L201.06-10.69Q201.35-10.94 201.74-11.21 202.13-11.47 202.38-11.77L202.38-11.77Q202.62-12.01 202.79-12.3 202.96-12.6 203.16-12.84L203.16-12.84Q203.55-13.48 204.04-14.11 204.53-14.75 205.06-15.28L205.06-15.28Q205.31-16.36 205.7-17.36 206.09-18.36 206.48-19.34 206.87-20.31 207.14-21.34 207.41-22.36 207.41-23.49L207.41-23.49Q207.41-23.73 207.38-24.02 207.36-24.32 207.31-24.56L207.31-24.56Q207.7-25.1 207.7-25.73ZM278.4-8.5L278.4-8.5Q278.3-7.76 277.89-7.37 277.47-6.98 276.94-6.64L276.94-6.64Q276.69-6.69 276.47-6.71 276.25-6.74 276.01-6.74L276.01-6.74Q274.49-6.79 273.15-6.35 271.81-5.91 270.39-5.71L270.39-5.71Q269.9-5.62 269.49-5.64 269.07-5.66 268.63-5.57L268.63-5.57Q267.07-5.32 265.31-5.18 263.56-5.03 261.8-4.81 260.04-4.59 258.36-4.27 256.67-3.96 255.21-3.37L255.21-3.37Q255.06-3.47 254.91-3.59 254.77-3.71 254.57-3.71L254.57-3.71Q254.08-3.71 253.64-3.56 253.21-3.42 252.77-3.47L252.77-3.47Q252.28-3.17 251.72-3.05 251.15-2.93 250.59-2.86 250.03-2.78 249.49-2.64 248.96-2.49 248.47-2.1L248.47-2.1Q248.08-2.29 247.52-2.32 246.96-2.34 246.76-2.69L246.76-2.69Q245.64-2.15 244.39-2 243.15-1.86 241.88-1.9L241.88-1.9Q241.05-1.95 239.97-2.15 238.9-2.34 237.82-2.71 236.75-3.08 235.82-3.59 234.89-4.1 234.41-4.83L234.41-4.83Q234.06-5.32 233.92-5.91 233.77-6.49 233.23-6.79L233.23-6.79Q233.38-7.91 233.58-8.98 233.77-10.06 233.97-11.18L233.97-11.18Q234.94-12.01 235.82-12.94 236.7-13.87 237.48-14.89L237.48-14.89Q238.41-15.33 239.22-15.97 240.02-16.6 240.83-17.26 241.63-17.92 242.44-18.55 243.24-19.19 244.17-19.68L244.17-19.68Q244.32-20.02 244.59-20.24 244.86-20.46 245.15-20.68 245.44-20.9 245.69-21.17 245.93-21.44 246.03-21.83L246.03-21.83Q247.74-22.85 249.01-24.41 250.28-25.98 250.67-27.93L250.67-27.93Q249.84-28.61 248.79-28.83 247.74-29.05 246.61-29.15L246.61-29.15Q245.64-29.2 244.59-29.15 243.54-29.1 242.46-29.2L242.46-29.2Q241.39-28.86 240.24-28.76 239.09-28.66 237.97-28.59 236.85-28.52 235.75-28.3 234.65-28.08 233.63-27.49L233.63-27.49Q233.43-27.49 233.26-27.54 233.09-27.59 232.89-27.59L232.89-27.59Q231.33-27.64 229.96-26.98 228.6-26.32 227.28-25.68L227.28-25.68Q227.18-25.49 227.18-25.39L227.18-25.39Q227.18-25.1 227.3-24.83 227.42-24.56 227.42-24.27L227.42-24.27Q227.38-24.22 227.38-24.17 227.38-24.12 227.33-24.07L227.33-24.07Q227.28-23.83 227.2-23.63 227.13-23.44 227.03-23.19L227.03-23.19Q226.5-21.63 226.45-20.12L226.45-20.12Q226.4-18.85 226.45-17.63 226.5-16.41 226.45-15.14L226.45-15.14Q226.35-13.57 225.96-12.21L225.96-12.21Q226.2-11.04 226.4-9.74 226.59-8.45 226.89-7.18 227.18-5.91 227.59-4.71 228.01-3.52 228.69-2.44L228.69-2.44Q228.64-2.34 228.74-2.29 228.84-2.25 228.94-2.25L228.94-2.25 229.33-2.25Q229.57-2.25 229.52-2.05L229.52-2.05Q229.62-1.9 229.67-1.78 229.72-1.66 229.87-1.56L229.87-1.56Q229.96-1.42 229.87-1.17L229.87-1.17Q229.82-0.2 229.38 0.63 228.94 1.46 228.84 2.44L228.84 2.44Q228.25 2.59 227.77 2.59L227.77 2.59Q226.94 2.54 226.3 2.12 225.67 1.71 225.13 1.12 224.59 0.54 224.1-0.07 223.62-0.68 223.03-1.12L223.03-1.12Q222.69-2.49 222.37-4.15 222.05-5.81 221.32-6.98L221.32-6.98Q221.52-7.42 221.52-8.06L221.52-8.06Q221.56-9.03 221.34-9.99 221.13-10.94 221.22-11.91L221.22-11.91Q221.22-12.45 221.34-12.99 221.47-13.53 221.52-14.06L221.52-14.06Q221.56-14.89 221.34-15.67 221.13-16.46 221.17-17.29L221.17-17.29Q221.22-17.68 221.34-18.04 221.47-18.41 221.71-18.7L221.71-18.7Q221.47-19.29 221.56-19.82L221.56-19.82Q221.61-20.65 221.76-21.39 221.91-22.12 221.96-22.85L221.96-22.85Q221.96-23.24 221.91-23.61 221.86-23.97 221.76-24.32L221.76-24.32 221.32-24.46Q221.03-24.46 220.76-24.32 220.49-24.17 220.3-23.97 220.1-23.78 219.95-23.66 219.81-23.54 219.66-23.54L219.66-23.54Q219.56-23.54 219.44-23.56 219.32-23.58 219.22-23.58L219.22-23.58Q219.12-23.58 218.85-23.39 218.59-23.19 218.22-22.97 217.85-22.75 217.51-22.53 217.17-22.31 216.97-22.27L216.97-22.27Q216.44-22.36 216.12-22.63 215.8-22.9 215.53-23.17 215.27-23.44 214.97-23.66 214.68-23.88 214.24-23.83L214.24-23.83Q214.09-24.12 214.07-24.46 214.05-24.8 214.09-25.15L214.09-25.15 214.09-25.93Q214.44-26.56 215-26.98 215.56-27.39 216.19-27.69L216.19-27.69 217.46-28.27Q218.1-28.56 218.63-29L218.63-29 219.07-29Q219.95-28.96 220.61-29.35 221.27-29.74 221.86-30.25 222.44-30.76 223.05-31.3 223.66-31.84 224.4-32.13L224.4-32.13Q224.93-31.88 225.52-31.71 226.11-31.54 226.74-31.49L226.74-31.49Q227.38-31.49 228.06-31.69 228.74-31.88 229.13-32.42L229.13-32.42Q229.38-32.32 229.55-32.3 229.72-32.28 229.96-32.28L229.96-32.28Q230.7-32.23 231.43-32.5 232.16-32.76 232.84-33.15L232.84-33.15Q233.82-33.11 234.77-33.28 235.72-33.45 236.68-33.64 237.63-33.84 238.58-34.01 239.53-34.18 240.51-34.13L240.51-34.13Q242.12-34.08 243.68-34.42 245.25-34.77 246.86-34.67L246.86-34.67Q247.98-34.62 249.08-34.5 250.18-34.38 251.3-34.42L251.3-34.42Q251.94-34.13 252.45-33.91 252.96-33.69 253.74-33.79L253.74-33.79Q255.3-32.47 256.57-30.71L256.57-30.71 256.57-29.88Q256.53-28.76 256.18-27.69 255.84-26.61 255.38-25.56 254.91-24.51 254.38-23.51 253.84-22.51 253.35-21.53L253.35-21.53Q250.18-18.65 247-15.82 243.83-12.99 240.46-10.35L240.46-10.35Q240.36-9.86 240.19-9.47 240.02-9.08 239.97-8.64L239.97-8.64Q239.97-8.4 240.02-8.25L240.02-8.25Q240.36-8.15 240.63-7.89 240.9-7.62 240.8-7.18L240.8-7.18 241.24-7.18Q241.49-7.18 241.49-6.98L241.49-6.98 242.27-6.93Q244.12-6.84 245.98-7.03 247.83-7.23 249.71-7.47 251.59-7.71 253.45-7.93 255.3-8.15 257.16-8.2L257.16-8.2Q257.6-8.35 258.09-8.45 258.58-8.54 258.97-8.84L258.97-8.84 259.11-8.84Q259.46-8.84 259.63-8.64 259.8-8.45 260.14-8.4L260.14-8.4Q260.38-8.4 260.65-8.5 260.92-8.59 261.21-8.64L261.21-8.64Q261.9-8.84 262.65-8.89 263.41-8.94 264.14-9.03L264.14-9.03Q266.97-9.28 269.76-9.35 272.54-9.42 275.32-10.06L275.32-10.06Q275.57-9.72 276.01-9.59 276.45-9.47 276.94-9.35 277.42-9.23 277.84-9.08 278.25-8.94 278.4-8.5ZM295.44-31.05L295.44-31.05 295.44-30.86Q295.1-30.76 295.1-30.37L295.1-30.37Q294.56-30.13 293.97-30 293.39-29.88 292.85-29.64L292.85-29.64Q292.31-29.69 291.75-29.71 291.19-29.74 290.65-29.74L290.65-29.74Q289.19-29.74 287.72-29.64 286.26-29.54 284.79-29.64L284.79-29.64Q284.11-29.25 283.31-29.03 282.5-28.81 281.77-28.81L281.77-28.81Q281.18-28.81 280.74-28.96L280.74-28.96Q279.57-28.37 278.18-27.98 276.79-27.59 275.37-27.22 273.95-26.86 272.66-26.39 271.37-25.93 270.39-25.1L270.39-25.1Q270.29-24.41 270.24-23.75 270.19-23.1 270.19-22.46L270.19-22.46Q270.19-21.78 270.27-21.19 270.34-20.61 270.59-20.02L270.59-20.02Q270.83-19.92 271.15-19.87 271.46-19.82 271.71-19.82L271.71-19.82Q271.95-19.82 272.2-19.9 272.44-19.97 272.54-20.21L272.54-20.21Q273.27-20.31 274-20.29 274.74-20.26 275.47-20.26L275.47-20.26Q276.2-20.26 276.91-20.31 277.62-20.36 278.3-20.56L278.3-20.56Q279.08-20.75 279.84-20.8 280.6-20.85 281.33-20.9 282.06-20.95 282.84-21.07 283.62-21.19 284.45-21.58L284.45-21.58Q285.09-21.34 285.75-21.34 286.41-21.34 287.04-21.24L287.04-21.24Q287.38-21 287.6-20.7 287.82-20.41 287.82-20.02L287.82-20.02Q287.82-19.34 287.33-18.65 286.85-17.97 286.55-17.38L286.55-17.38 286.02-17.38Q284.84-17.38 283.74-17.07 282.65-16.75 281.55-16.33 280.45-15.92 279.35-15.6 278.25-15.28 277.08-15.28L277.08-15.28Q276.88-15.28 276.86-15.06 276.84-14.84 276.74-14.75L276.74-14.75Q276.49-14.79 276.01-14.79L276.01-14.79Q274.88-14.79 273.86-14.55 272.83-14.31 271.76-14.31L271.76-14.31Q271.46-14.31 271.17-14.33 270.88-14.36 270.59-14.4L270.59-14.4Q270.34-14.01 269.95-13.89 269.56-13.77 269.22-13.48L269.22-13.48Q269.07-13.04 269.05-12.4 269.02-11.77 269-11.11 268.97-10.45 268.88-9.86 268.78-9.28 268.49-8.94L268.49-8.94Q268.53-8.69 268.88-8.76 269.22-8.84 269.22-8.45L269.22-8.45Q269.22-8.01 269.12-7.52 269.02-7.03 269.02-6.54L269.02-6.54Q269.02-5.62 269.24-4.52 269.46-3.42 269.93-2.49 270.39-1.56 271.17-0.95 271.95-0.34 273.12-0.34L273.12-0.34Q273.91-0.34 274.59-0.63 275.27-0.93 275.71-1.61L275.71-1.61 275.96-1.66Q276.15-1.66 276.32-1.61 276.49-1.56 276.69-1.56L276.69-1.56Q276.98-1.56 277.45-1.93 277.91-2.29 278.47-2.78 279.03-3.27 279.62-3.74 280.2-4.2 280.74-4.39L280.74-4.39Q281.08-5.08 281.4-5.76 281.72-6.45 282.35-6.84L282.35-6.84 282.35-8.25Q282.84-8.79 283.4-9.23 283.96-9.67 284.26-10.35L284.26-10.35Q284.5-10.25 284.72-10.21 284.94-10.16 285.19-10.16L285.19-10.16Q285.43-10.16 285.7-10.21 285.97-10.25 286.21-10.35L286.21-10.35Q286.6-9.81 286.82-9.16 287.04-8.5 287.38-7.91L287.38-7.91Q286.94-7.03 286.36-5.81 285.77-4.59 285.09-3.37 284.4-2.15 283.65-1.05 282.89 0.05 282.16 0.63L282.16 0.63Q282.01 0.78 281.52 0.98L281.52 0.98Q280.99 1.37 280.55 1.73 280.11 2.1 279.72 2.59L279.72 2.59Q278.3 3.03 277.01 3.76 275.71 4.49 274.44 5.18L274.44 5.18Q273.86 5.03 273.17 5.03L273.17 5.03Q272.59 5.03 272 5.1 271.42 5.18 270.73 5.18L270.73 5.18Q270.54 4.93 270.17 4.86 269.8 4.79 269.9 4.35L269.9 4.35Q268.24 4.25 267.22 3.44 266.19 2.64 265.48 1.46 264.77 0.29 264.34-1.07 263.9-2.44 263.41-3.71L263.41-3.71 263.41-3.86Q263.41-4.1 263.6-4.15 263.8-4.2 263.8-4.44L263.8-4.44Q263.8-4.54 263.75-4.59L263.75-4.59Q263.6-5.13 263.51-5.52 263.41-5.91 263.41-6.45L263.41-6.45Q263.41-7.23 263.51-7.98 263.6-8.74 263.6-9.52L263.6-9.52Q263.6-10.3 263.41-10.89L263.41-10.89Q263.6-11.13 263.73-11.55 263.85-11.96 263.9-12.4 263.94-12.84 263.97-13.28 263.99-13.72 264.09-14.06L264.09-14.06Q263.9-14.6 263.75-15.01 263.6-15.43 263.6-16.02L263.6-16.02 263.6-16.36Q264.09-17.19 264.43-18.07 264.77-18.95 265.17-19.87L265.17-19.87 265.17-20.02Q265.17-21.44 265.07-22.85 264.97-24.27 264.97-25.68L264.97-25.68 264.97-26.61Q264.97-27.1 265.02-27.54L265.02-27.54Q265.41-27.73 265.61-28.08 265.8-28.42 266.19-28.61L266.19-28.61 267.8-28.61 268.1-29.1Q268.24-29.35 268.29-29.64L268.29-29.64Q268.83-29.79 269.34-30.05 269.85-30.32 270.29-30.62L270.29-30.62Q270.98-31.01 271.54-31.32 272.1-31.64 272.66-31.86 273.22-32.08 273.86-32.23 274.49-32.37 275.32-32.47L275.32-32.47Q275.71-32.47 275.83-32.62 275.96-32.76 276.2-32.96L276.2-32.96Q276.79-32.86 277.37-32.79 277.96-32.71 278.54-32.71L278.54-32.71Q279.72-32.71 280.74-33.15L280.74-33.15Q282.21-33.15 283.65-33.2 285.09-33.25 286.55-33.25L286.55-33.25Q287.82-33.25 289.09-33.15 290.36-33.06 291.58-32.81L291.58-32.81Q292.02-32.96 292.56-32.96L292.56-32.96Q293.14-32.96 293.75-32.84 294.36-32.71 294.95-32.81L294.95-32.81Q295-32.28 295.22-31.91 295.44-31.54 295.44-31.05Z" opacity="1" transform="matrix(1,0,0,1,0,0)" fill="#454545" class="undefined-text-0" data-fill-palette-color="primary" id="text-0"></path></svg></g></svg></g></svg></g></svg></g><g transform="matrix(1,0,0,1,100.68202963186391,0)"><svg viewBox="0 0 194.15594073627216 194.15594073627216" height="194.15594073627216" width="194.15594073627216"><g><svg></svg></g><g id="icon-0"><svg viewBox="0 0 194.15594073627216 194.15594073627216" height="194.15594073627216" width="194.15594073627216"><g><path d="M0 97.078c0-53.615 43.463-97.078 97.078-97.078 53.615 0 97.078 43.463 97.078 97.078 0 53.615-43.463 97.078-97.078 97.078-53.615 0-97.078-43.463-97.078-97.078zM97.078 186.965c49.643 0 89.887-40.244 89.887-89.887 0-49.643-40.244-89.887-89.887-89.887-49.643 0-89.887 40.244-89.887 89.887 0 49.643 40.244 89.887 89.887 89.887z" data-fill-palette-color="accent" fill="#454545" stroke="transparent"></path><ellipse rx="96.10719066445472" ry="96.10719066445472" cx="97.07797036813608" cy="97.07797036813608" fill="#454545" stroke="transparent" stroke-width="0" fill-opacity="1" data-fill-palette-color="accent"></ellipse></g><g transform="matrix(1,0,0,1,40.89912759448743,46.53401419863883)"><svg viewBox="0 0 112.3576855472973 101.0879123389945" height="101.0879123389945" width="112.3576855472973"><g><svg xmlns="http://www.w3.org/2000/svg" xmlns:xlink="http://www.w3.org/1999/xlink" version="1.1" x="0" y="0" viewBox="13.320999145507812 17 73.35800170898438 66" enable-background="new 0 0 100 100" xml:space="preserve" height="101.0879123389945" width="112.3576855472973" class="icon-c-0" data-fill-palette-color="quaternary" id="c-0"><g fill="#f9e17e" data-fill-palette-color="quaternary"><polygon points="74.11,17 26.046,17 19,20.067 19,30 80,30 80,20.067  " fill="#f9e17e" data-fill-palette-color="quaternary"></polygon><path d="M86.679 56l-9.764-25H70.98l7.479 25h0.003c0.003 0 0.007 0.354 0.015 0.441-0.26 2.004-1.973 3.466-4.049 3.466-2.167 0-3.847-1.907-3.983-3.907l0 0-5.467-25h-5.934l3.183 25 0 0c-0.137 2-1.865 3.898-4.032 3.898-2.22 0-4.08-1.898-4.136-3.898l0 0-1.063-25H50.05h-0.017-2.944l-1.07 25h0.017c-0.137 2-1.907 3.898-4.074 3.898-2.221 0-4.113-1.898-4.169-3.898l0 0 3.163-25h-5.934l-5.468 25 0 0c-0.137 2-1.817 3.996-3.984 3.996-2.077 0-3.79-1.638-4.049-3.645C21.528 56.265 21.533 56 21.535 56h0.005l7.48-25h-5.935l-9.764 25 0 0c0.056 2 1.57 4.154 3.792 4.154 0.821 0 1.887-0.067 1.887-0.484V83h61V59.769c2 0.356 1.552 0.386 2.308 0.386C84.528 60.154 86.622 58 86.679 56L86.679 56z" fill="#f9e17e" data-fill-palette-color="quaternary"></path></g></svg></g></svg></g></svg></g></svg></g><g></g></svg></g><defs></defs></svg><rect width="313.83027827896944" height="247.2" fill="none" stroke="none" visibility="hidden"></rect></g></svg></g></svg>